<svg xmlns="http://www.w3.org/2000/svg" version="1.1" xmlns:xlink="http://www.w3.org/1999/xlink" xmlns:svgjs="http://svgjs.dev/svgjs" width="197.19" height="197.19"><svg id="SvgjsSvg1001" data-name="Calque 1" xmlns="http://www.w3.org/2000/svg" viewBox="0 0 197.19 197.19">
  <defs>
    <style>
      .cls-1 {
        fill: #00c984;
      }

      .cls-1, .cls-2 {
        stroke-width: 0px;
      }

      .cls-2 {
        fill: #fff;
      }
    </style>
  </defs>
  <circle class="cls-2" cx="98.59" cy="98.59" r="98.59"></circle>
  <g>
    <circle class="cls-1" cx="54.23" cy="127.55" r="27.41"></circle>
    <path class="cls-1" d="M164.32,110.37l-41.4-71.71c-5.55-9.8-13.91-18.33-25.87-18.33-14.39,0-26.5,11.36-27.36,25.73-.95,15.9,11.67,29.09,27.36,29.09,7.07,0,14.19-1.26,21.23-.99,5.77.22,11.37,2.11,13.9,7.75,3.61,8.05-2.61,16.95-7.24,23.15-5.12,6.86-9.72,14.68-9.36,23.61.58,14.57,12.76,26.27,27.34,26.3,15.16.03,27.46-12.26,27.46-27.41,0-6.5-2.65-10.25-6.06-17.18Z"></path>
  </g>
</svg><style>@media (prefers-color-scheme: light) { :root { filter: none; } }
@media (prefers-color-scheme: dark) { :root { filter: none; } }
</style></svg>