<?xml version="1.0" encoding="UTF-8"?>
<svg id="Calque_1" data-name="Calque 1" xmlns="http://www.w3.org/2000/svg" viewBox="0 0 748.38 197.19">
  <defs>
    <style>
      .cls-1 {
        fill: #1e1e1e;
      }

      .cls-1, .cls-2, .cls-3 {
        stroke-width: 0px;
      }

      .cls-2 {
        fill: #00c984;
      }

      .cls-3 {
        fill: #fff;
      }
    </style>
  </defs>
  <g>
    <circle class="cls-2" cx="98.59" cy="98.59" r="98.59"/>
    <g>
      <circle class="cls-3" cx="54.23" cy="127.55" r="27.41"/>
      <path class="cls-3" d="M164.32,110.37l-41.4-71.71c-5.55-9.8-13.91-18.33-25.87-18.33-14.39,0-26.5,11.36-27.36,25.73-.95,15.9,11.67,29.09,27.36,29.09,7.07,0,14.19-1.26,21.23-.99,5.77.22,11.37,2.11,13.9,7.75,3.61,8.05-2.61,16.95-7.24,23.15-5.12,6.86-9.72,14.68-9.36,23.61.58,14.57,12.76,26.27,27.34,26.3,15.16.03,27.46-12.26,27.46-27.41,0-6.5-2.65-10.25-6.06-17.18Z"/>
    </g>
  </g>
  <g>
    <path class="cls-1" d="M301.99,39.99c3-7,9.2-10.4,15.6-10.4s12.4,3.4,15.4,10.4l54.4,125c1.2,3,0,5.4-2.6,5.4h-22c-2.4,0-4.6-.2-5.8-3.2l-9.6-24h-59.6l-9.8,24c-1.2,3-3.4,3.2-5.8,3.2h-22c-2.6,0-3.8-2.4-2.6-5.4l54.4-125ZM337.59,118.99l-20-49.4-20,49.4h40Z"/>
    <path class="cls-1" d="M456.99,66.39c6.2,0,11.2,5,11.2,11.2s-5,11.2-11.2,11.2h-6c-14.8,0-22.2,10-22.2,24v53.8c0,2-1.8,3.8-3.8,3.8h-18.2c-2,0-3.8-1.8-3.8-3.8v-54.4c0-27,17.6-45.8,48-45.8h6Z"/>
    <path class="cls-1" d="M495.98,23.8c8.6,0,15.6,7,15.6,15.6s-7,15.6-15.6,15.6-15.8-7-15.8-15.6,7-15.6,15.8-15.6ZM482.98,79.19c0-7,5.8-12.8,13-12.8s12.8,5.8,12.8,12.8v87.4c0,2-1.8,3.8-3.8,3.8h-18.2c-2,0-3.8-1.8-3.8-3.8v-87.4Z"/>
    <path class="cls-1" d="M528.58,119.59c0-31.2,22-53.4,53-53.4s53.4,22.2,53.4,53.4-22.2,53.8-53.4,53.8-53-22.2-53-53.8ZM609.78,119.59c0-17.8-11.6-30.2-28.2-30.2s-27.8,12.4-27.8,30.2,11.6,30.6,27.8,30.6,28.2-12.4,28.2-30.6Z"/>
    <path class="cls-1" d="M722.58,112.59c0-14-9.2-23.8-22.2-23.8s-22.4,9.8-22.4,23.8v54c0,2-1.8,3.8-3.8,3.8h-18.2c-2,0-3.8-1.8-3.8-3.8v-87.4c0-7,5.8-12.8,13-12.8,6,0,11.2,4.2,12.4,9.8,7.4-6.4,17-10,28.2-10,25,0,42.6,18.8,42.6,45.8v54.6c0,2-1.8,3.8-3.8,3.8h-18.2c-2,0-3.8-1.8-3.8-3.8v-54Z"/>
  </g>
</svg>